<svg width="256" height="256" viewBox="0 0 256 256" fill="none" xmlns="http://www.w3.org/2000/svg">
    <rect width="256" height="256" fill="white" />
    <path
        d="M55.0438 131.416C55.0438 127.192 57.7318 124.504 61.6358 124.504C65.5398 124.504 68.2278 127.32 68.2278 131.416V151H76.5478V131.416C76.5478 127.192 79.2998 124.504 83.1398 124.504C87.0438 124.504 89.7318 127.32 89.7318 131.416V151H98.0518V129.688C98.0518 122.584 92.9958 117.016 85.4438 117.016C80.9638 117.016 77.0598 119.192 74.8198 122.84C72.7078 119.32 68.8038 117.016 63.9398 117.016C60.4838 117.016 57.2838 118.36 55.0438 120.6V117.912H46.7238V151H55.0438V131.416ZM102.697 134.424C102.697 144.536 110.505 151.832 120.617 151.832C126.761 151.832 131.753 149.208 135.081 144.664L129.257 140.312C126.825 143.448 124.073 144.664 120.553 144.664C115.945 144.664 112.361 141.528 111.273 137.24H136.809V134.808C136.809 124.504 129.769 117.144 119.849 117.144C110.057 117.144 102.697 125.208 102.697 134.424ZM119.657 124.312C123.689 124.312 127.145 126.744 128.361 130.84H111.401C112.553 126.808 115.753 124.312 119.657 124.312ZM140.322 134.424C140.322 144.536 148.13 151.832 158.242 151.832C164.386 151.832 169.378 149.208 172.706 144.664L166.882 140.312C164.45 143.448 161.698 144.664 158.178 144.664C153.57 144.664 149.986 141.528 148.898 137.24H174.434V134.808C174.434 124.504 167.394 117.144 157.474 117.144C147.682 117.144 140.322 125.208 140.322 134.424ZM157.282 124.312C161.314 124.312 164.77 126.744 165.986 130.84H149.026C150.178 126.808 153.378 124.312 157.282 124.312ZM191.786 151H198.314V143.768H194.154C192.234 143.768 191.018 142.936 191.018 141.208V125.144H198.314V117.912H191.018V108.312H182.698V117.912H176.234V125.144H182.698V142.68C182.698 147.416 185.77 151 191.786 151Z"
        fill="#FFC251" />
    <path
        d="M206.071 142.04C203.383 142.04 201.207 144.152 201.207 146.84C201.207 149.528 203.383 151.64 206.071 151.64C208.759 151.64 210.935 149.528 210.935 146.84C210.935 144.152 208.759 142.04 206.071 142.04Z"
        fill="black" />
    <rect width="20.7792" height="6.23377" transform="translate(211.221 200)" fill="black" />
    <rect width="6.23377" height="20.7792" transform="translate(225.766 200)" fill="black" />
    <rect width="2.07792" height="25.7662" transform="translate(200 206.234)" fill="black" />
    <rect width="25.7662" height="2.07792" transform="translate(200 229.922)" fill="black" />
</svg>