<svg width="128" height="128" viewBox="0 0 128 128" fill="none" xmlns="http://www.w3.org/2000/svg">
	<rect x="35" y="65" width="70" height="14" fill="#FBE216" />
	<path
	class="text-black dark:text-white"
		d="M15.7943 66.148C15.7943 63.376 17.5583 61.612 20.1203 61.612C22.6823 61.612 24.4463 63.46 24.4463 66.148V79H29.9063V66.148C29.9063 63.376 31.7123 61.612 34.2323 61.612C36.7943 61.612 38.5583 63.46 38.5583 66.148V79H44.0183V65.014C44.0183 60.352 40.7003 56.698 35.7443 56.698C32.8043 56.698 30.2423 58.126 28.7723 60.52C27.3863 58.21 24.8243 56.698 21.6323 56.698C19.3643 56.698 17.2643 57.58 15.7943 59.05V57.286H10.3343V79H15.7943V66.148ZM47.0666 68.122C47.0666 74.758 52.1906 79.546 58.8266 79.546C62.8586 79.546 66.1346 77.824 68.3186 74.842L64.4966 71.986C62.9006 74.044 61.0946 74.842 58.7846 74.842C55.7606 74.842 53.4086 72.784 52.6946 69.97H69.4526V68.374C69.4526 61.612 64.8326 56.782 58.3226 56.782C51.8966 56.782 47.0666 62.074 47.0666 68.122ZM58.1966 61.486C60.8426 61.486 63.1106 63.082 63.9086 65.77H52.7786C53.5346 63.124 55.6346 61.486 58.1966 61.486ZM71.758 68.122C71.758 74.758 76.882 79.546 83.518 79.546C87.55 79.546 90.826 77.824 93.01 74.842L89.188 71.986C87.592 74.044 85.786 74.842 83.476 74.842C80.452 74.842 78.1 72.784 77.386 69.97H94.144V68.374C94.144 61.612 89.524 56.782 83.014 56.782C76.588 56.782 71.758 62.074 71.758 68.122ZM82.888 61.486C85.534 61.486 87.802 63.082 88.6 65.77H77.47C78.226 63.124 80.326 61.486 82.888 61.486ZM105.531 79H109.815V74.254H107.085C105.825 74.254 105.027 73.708 105.027 72.574V62.032H109.815V57.286H105.027V50.986H99.5673V57.286H95.3253V62.032H99.5673V73.54C99.5673 76.648 101.583 79 105.531 79ZM114.906 73.12C113.142 73.12 111.714 74.506 111.714 76.27C111.714 78.034 113.142 79.42 114.906 79.42C116.67 79.42 118.098 78.034 118.098 76.27C118.098 74.506 116.67 73.12 114.906 73.12Z"
		fill="currentColor" />
</svg>
