<svg width="196" height="52" viewBox="0 0 196 52" fill="none" xmlns="http://www.w3.org/2000/svg">
    <path
        d="M10.7707 27.744C10.7707 22.728 13.9627 19.536 18.5987 19.536C23.2347 19.536 26.4267 22.88 26.4267 27.744V51H36.3067V27.744C36.3067 22.728 39.5747 19.536 44.1347 19.536C48.7707 19.536 51.9627 22.88 51.9627 27.744V51H61.8427V25.692C61.8427 17.256 55.8387 10.644 46.8707 10.644C41.5507 10.644 36.9147 13.228 34.2547 17.56C31.7467 13.38 27.1107 10.644 21.3347 10.644C17.2307 10.644 13.4307 12.24 10.7707 14.9V11.708H0.890703V51H10.7707V27.744ZM67.3586 31.316C67.3586 43.324 76.6306 51.988 88.6386 51.988C95.9346 51.988 101.863 48.872 105.815 43.476L98.8986 38.308C96.0106 42.032 92.7426 43.476 88.5626 43.476C83.0906 43.476 78.8346 39.752 77.5426 34.66H107.867V31.772C107.867 19.536 99.5066 10.796 87.7266 10.796C76.0986 10.796 67.3586 20.372 67.3586 31.316ZM87.4986 19.308C92.2866 19.308 96.3906 22.196 97.8346 27.06H77.6946C79.0626 22.272 82.8626 19.308 87.4986 19.308ZM112.038 31.316C112.038 43.324 121.31 51.988 133.318 51.988C140.614 51.988 146.542 48.872 150.494 43.476L143.578 38.308C140.69 42.032 137.422 43.476 133.242 43.476C127.77 43.476 123.514 39.752 122.222 34.66H152.546V31.772C152.546 19.536 144.186 10.796 132.406 10.796C120.778 10.796 112.038 20.372 112.038 31.316ZM132.178 19.308C136.966 19.308 141.07 22.196 142.514 27.06H122.374C123.742 22.272 127.542 19.308 132.178 19.308ZM173.152 51H180.904V42.412H175.964C173.684 42.412 172.24 41.424 172.24 39.372V20.296H180.904V11.708H172.24V0.307996H162.36V11.708H154.684V20.296H162.36V41.12C162.36 46.744 166.008 51 173.152 51Z"
        fill="#FFC251" />
    <path
        d="M190.116 40.36C186.924 40.36 184.34 42.868 184.34 46.06C184.34 49.252 186.924 51.76 190.116 51.76C193.308 51.76 195.892 49.252 195.892 46.06C195.892 42.868 193.308 40.36 190.116 40.36Z"
        fill="black" />
</svg>